<?xml version="1.0" encoding="UTF-8" standalone="no"?>
<!-- Created with Inkscape (http://www.inkscape.org/) -->

<svg
   width="128"
   height="700"
   viewBox="0 0 33.866666 185.20821"
   version="1.1"
   id="svg1"
   inkscape:version="1.3.2 (091e20e, 2023-11-25, custom)"
   sodipodi:docname="branch-right.svg"
   xml:space="preserve"
   xmlns:inkscape="http://www.inkscape.org/namespaces/inkscape"
   xmlns:sodipodi="http://sodipodi.sourceforge.net/DTD/sodipodi-0.dtd"
   xmlns="http://www.w3.org/2000/svg"
   xmlns:svg="http://www.w3.org/2000/svg"><sodipodi:namedview
     id="namedview1"
     pagecolor="#ffffff"
     bordercolor="#000000"
     borderopacity="0.25"
     inkscape:showpageshadow="2"
     inkscape:pageopacity="0.0"
     inkscape:pagecheckerboard="0"
     inkscape:deskcolor="#d1d1d1"
     inkscape:document-units="mm"
     showguides="false"
     inkscape:zoom="0.33740234"
     inkscape:cx="-272.67149"
     inkscape:cy="460.87409"
     inkscape:window-width="1920"
     inkscape:window-height="991"
     inkscape:window-x="-9"
     inkscape:window-y="-9"
     inkscape:window-maximized="1"
     inkscape:current-layer="layer1" /><defs
     id="defs1"><linearGradient
       id="swatch1"
       inkscape:swatch="solid"><stop
         style="stop-color:#000000;stop-opacity:1;"
         offset="0"
         id="stop1" /></linearGradient><clipPath
       clipPathUnits="userSpaceOnUse"
       id="clipPath148"><path
         id="path149"
         style="fill:#ff0000;fill-opacity:1;fill-rule:nonzero;stroke:none;stroke-width:0.264583"
         d="m 16.810343,47.03899 c -0.06201,0.09451 -0.10108,0.199938 -0.136942,0.307475 -0.07689,0.225087 -0.157429,0.448734 -0.241329,0.671277 -0.128864,0.3307 -0.335396,0.626875 -0.606681,0.856795 -0.06067,0.05142 -0.127393,0.09517 -0.191203,0.142626 -0.372792,0.193231 -0.185994,0.11643 -0.558106,0.235646 -0.104679,0.03354 -0.195279,0.0554 -0.273885,0.06769 -0.01916,0.03496 -0.03984,0.06913 -0.05839,0.104386 -0.100625,0.195884 -0.20298,0.390493 -0.303341,0.586528 -0.02573,0.0675 -0.01259,0.03145 -0.04082,0.109554 -0.03006,0.08318 -0.06293,0.160149 -0.09715,0.234095 1.94e-4,-1.45e-4 3.17e-4,-2.65e-4 5.29e-4,-5.29e-4 0.869781,-0.65332 2.35489,-1.265256 3.370854,-1.582333 0.994849,-0.310488 2.484365,-0.6214 3.548103,-0.622702 0.507332,-5.29e-4 1.008089,0.116298 1.512053,0.174667 0.03863,0.04701 0.08064,0.09243 0.12299,0.137459 1.011401,-0.339547 2.038224,-0.635119 3.084049,-0.846976 0.204212,-0.04137 0.393204,-0.0593 0.566376,-0.05788 1.673976,0.01376 1.862579,1.857613 -0.111623,2.256708 -0.964154,0.19491 -1.910601,0.467645 -2.842721,0.781348 -0.03302,0.05008 -0.0669,0.101241 -0.09715,0.148829 -0.138752,0.218252 -0.38086,0.352877 -0.593763,0.49971 -0.07848,0.05413 -0.162083,0.09989 -0.245463,0.146246 0.268596,0.434594 0.608832,0.842595 0.804602,1.304311 0.195198,0.0058 0.387953,0.02755 0.575159,0.08475 0.450275,0.137567 0.813587,0.518353 1.088306,0.900718 0.352761,0.490987 0.468853,1.066657 0.417029,1.636593 0.160119,0.01114 0.319651,0.02748 0.476973,0.05684 0.443445,0.08277 0.855434,0.287036 1.283127,0.430467 0.317498,0.360439 0.76468,0.63945 0.952397,1.081587 0.03071,0.07234 0.05206,0.147948 0.06925,0.22479 0.306218,0.210432 0.57322,0.481775 0.774112,0.835094 0.515853,0.907259 0.275418,1.45264 -0.04444,2.14974 0.104992,-0.08271 0.208968,-0.166711 0.315744,-0.247015 0.07538,-0.05398 0.153334,-0.104296 0.230994,-0.15503 v -0.03255 c 0.0053,-0.191315 -0.01225,-0.384093 0.01291,-0.574644 0.01024,-0.07753 0.02864,-0.153588 0.04289,-0.230476 0.04537,-0.195961 0.136205,-0.372485 0.232545,-0.546737 0.25009,-0.452337 0.556361,-0.73392 0.863513,-0.876948 V 51.07904 c -0.390583,-0.108003 -0.796449,-0.458094 -1.082104,-1.112594 -0.06481,-0.148508 -0.12955,-0.296844 -0.191719,-0.446484 -0.151953,-0.34906 -0.324999,-0.689245 -0.518832,-1.016992 -0.08237,-0.128289 -0.168924,-0.253448 -0.25735,-0.377238 -0.261207,-0.179824 -0.520708,-0.362109 -0.775663,-0.550871 -0.224192,-0.172045 -0.443688,-0.348943 -0.654738,-0.535884 z m 1.910478,3.768244 c -0.694103,0.189322 -1.368769,0.428376 -2.0283,0.747241 -0.441758,0.21358 -0.883375,0.443156 -1.26969,0.745691 -0.249356,0.195281 -0.407059,0.485124 -0.610815,0.727604 -0.0026,0.157216 -0.07392,0.328415 -0.0083,0.47129 0.04495,0.09782 0.63603,0.155313 0.65319,0.157612 0.09466,0.01243 0.159372,0.02101 0.237194,0.03153 0.201318,-0.230529 0.435278,-0.437695 0.66766,-0.632005 0.42905,-0.358754 0.929889,-0.628557 1.433504,-0.871781 0.304734,-0.147172 0.661252,-0.289224 1.036113,-0.417544 -0.0488,-0.08067 -0.09573,-0.16845 -0.138493,-0.272336 -0.089,-0.21622 -0.0536,-0.452956 0.02791,-0.687297 z m 2.939356,1.053166 c -0.0013,5.29e-4 -0.0028,0.0011 -0.0041,0.0016 0.0017,0.03137 0.0039,0.06269 0.0057,0.09405 8.21e-4,-7.94e-4 0.0018,-0.0016 0.0026,-0.0026 0.01902,-0.02096 0.0027,-0.08214 -0.0041,-0.09302 z m 1.178222,2.778643 c -0.02496,0.0021 -0.04919,0.0075 -0.07235,0.01757 -0.148731,0.0647 -0.260851,0.191116 -0.386023,0.295589 0.330517,-0.03968 0.655663,-0.02511 0.96945,0.03411 -0.0014,-0.0872 -0.02193,-0.171699 -0.07803,-0.24288 -0.04463,-0.05662 -0.131522,-0.06374 -0.202572,-0.07596 -0.07467,-0.01288 -0.155598,-0.035 -0.230477,-0.02842 z m -8.946224,0.67386 v 2.260327 c 0.244116,0.161282 0.484536,0.41674 0.695048,0.781865 0.12316,0.213609 0.237667,0.431879 0.358118,0.646988 0.198284,0.358672 0.395622,0.717794 0.579293,1.084173 0.190211,0.413845 0.367195,0.833755 0.49661,1.271238 0.02416,0.0745 0.05022,0.148434 0.077,0.22221 0.199477,0.188188 0.386368,0.388898 0.560689,0.60048 0.172474,0.214813 0.320443,0.447286 0.467155,0.680061 0.02533,0.04032 0.04878,0.08186 0.07286,0.122992 0.06238,-0.01035 0.124583,-0.02172 0.187069,-0.03153 0.257714,-0.172559 0.634862,-0.287089 1.074353,-0.436666 0.310834,-0.07321 0.619853,-0.153363 0.932243,-0.219625 0.149418,-0.03169 0.302017,-0.05985 0.453202,-0.08992 -0.04257,-0.139774 -0.07418,-0.28243 -0.0987,-0.426847 -0.01559,-0.01109 -0.0303,-0.02371 -0.04599,-0.03462 -0.946214,-1.174064 -1.539037,-1.603523 -1.786971,-2.946074 -0.12688,-0.04471 -0.253305,-0.09236 -0.377755,-0.146243 -0.565115,-0.244703 -1.157131,-0.507426 -1.582849,-0.952397 -0.452356,-0.472816 -0.642928,-1.13996 -0.964282,-1.709973 0.01133,-0.06179 0.01675,-0.125431 0.02532,-0.188103 -0.312344,-0.07666 -0.617132,-0.178824 -0.891935,-0.338997 -0.08126,-0.04737 -0.155072,-0.09877 -0.230477,-0.149344 z m 4.351156,0.481107 c -0.384817,0.06333 -0.75128,0.124831 -1.110527,0.161748 0.03609,0.05823 0.07401,0.116266 0.09715,0.175183 0.256429,0.09817 0.510931,0.203687 0.765845,0.307475 0.06531,-0.220392 0.148591,-0.434766 0.24753,-0.644406 z m 8.915735,6.716903 c -0.02323,0.0044 -0.04647,0.0089 -0.06976,0.01291 0.0075,0.02609 0.01069,0.05161 0.01654,0.07751 0.01794,-0.03003 0.03528,-0.06042 0.05323,-0.09043 z" /></clipPath></defs><g
     inkscape:label="Calque 1"
     inkscape:groupmode="layer"
     id="layer1"><rect
       style="fill:#000000;stroke-width:0.210469;stroke-dasharray:none"
       id="rect1"
       width="4.496541"
       height="27.131956"
       x="-95.467979"
       y="118.26752"
       ry="2.199291"
       transform="matrix(-0.87900359,-0.47681515,-0.49772695,0.86733378,0,0)" /><rect
       style="fill:#000000;stroke-width:0.210469;stroke-dasharray:none"
       id="rect1-0"
       width="4.3899488"
       height="28.991293"
       x="-101.92858"
       y="113.4473"
       ry="2.199291"
       transform="matrix(-0.87900359,-0.47681515,-0.49772695,0.86733378,0,0)" /><rect
       style="fill:#000000;stroke-width:0.210469;stroke-dasharray:none"
       id="rect1-3"
       width="5.0090537"
       height="29.011992"
       x="-49.314426"
       y="116.5895"
       ry="2.0234554"
       transform="matrix(0.87900359,-0.47681515,0.49772695,0.86733378,0,0)" /><rect
       style="fill:#000000;stroke-width:0.210469;stroke-dasharray:none"
       id="rect1-5"
       width="4.8354855"
       height="29.87554"
       x="52.178986"
       y="-142.70224"
       ry="2.199291"
       transform="matrix(-0.87900359,0.47681515,-0.49772695,-0.86733378,0,0)" /><path
       style="fill:none;fill-opacity:1;fill-rule:nonzero;stroke:none;stroke-width:65.7914;stroke-dasharray:none;stroke-opacity:1;paint-order:normal"
       id="path7"
       sodipodi:type="arc"
       sodipodi:cx="-10.868134"
       sodipodi:cy="98.236237"
       sodipodi:rx="29.528175"
       sodipodi:ry="0.53212237"
       sodipodi:start="0"
       sodipodi:end="4.7196483"
       sodipodi:arc-type="slice"
       d="M 18.660042,98.236237 A 29.528175,0.53212237 0 0 1 0.38228194,98.728222 29.528175,0.53212237 0 0 1 -31.823355,98.611136 a 29.528175,0.53212237 0 0 1 -6.263329,-0.581207 29.528175,0.53212237 0 0 1 27.432903,-0.325801 l -0.214353,0.532109 z"
       transform="scale(-1,1)" /><path
       style="fill:#000000;fill-opacity:1;fill-rule:nonzero;stroke:none;stroke-width:279.775;stroke-dasharray:none;stroke-opacity:1;paint-order:normal"
       id="path9"
       sodipodi:type="arc"
       sodipodi:cx="-17.127234"
       sodipodi:cy="92.92083"
       sodipodi:rx="17.447798"
       sodipodi:ry="18.611124"
       sodipodi:start="4.7262687"
       sodipodi:end="4.7196483"
       sodipodi:arc-type="arc"
       d="M -16.885071,74.311498 A 17.447798,18.611124 0 0 1 0.31926058,93.148338 17.447798,18.611124 0 0 1 -17.311645,111.53091 17.447798,18.611124 0 0 1 -34.574338,92.754925 17.447798,18.611124 0 0 1 -17.000575,74.310196"
       sodipodi:open="true"
       transform="scale(-1,1)" /><path
       style="fill:#ffffff;fill-opacity:1;fill-rule:nonzero;stroke:none;stroke-width:107.689;stroke-dasharray:none;stroke-opacity:1;paint-order:normal"
       id="path10"
       sodipodi:type="arc"
       sodipodi:cx="-17.010984"
       sodipodi:cy="-92.841118"
       sodipodi:rx="14.955256"
       sodipodi:ry="15.952393"
       sodipodi:start="4.7262687"
       sodipodi:end="4.7196483"
       sodipodi:open="true"
       sodipodi:arc-type="arc"
       d="m -16.803416,-108.79197 a 14.955256,15.952393 0 0 1 14.7465706,16.145859 14.955256,15.952393 0 0 1 -15.1122056,15.756495 14.955256,15.952393 0 0 1 -14.796596,-16.093706 14.955256,15.952393 0 0 1 15.063227,-15.809768"
       transform="scale(-1)" /><path
       style="fill:#ffffff;fill-opacity:1;fill-rule:nonzero;stroke:none;stroke-width:65.7914;stroke-dasharray:none;stroke-opacity:1;paint-order:normal"
       id="path11"
       d="m 15.04451,90.215559 c -0.114423,0.767907 -0.148377,1.546108 -0.16588,2.322365 -0.03837,0.982841 -0.002,1.961372 0.133238,2.934075 0,0 -4.223876,2.369228 -4.223876,2.369228 v 0 c -0.05221,-0.499746 -0.117173,-0.998055 -0.144014,-1.500409 -0.02595,-0.485602 -0.01585,-0.519846 -0.01126,-1.001781 0.0016,-0.168439 0.0024,-0.336886 0.0037,-0.505327 0.0071,-0.761094 -0.0077,-1.521991 0.01316,-2.282891 z" /><g
       style="fill:#000000"
       id="g149"
       transform="matrix(-0.04891165,0,0,0.0448938,28.361419,84.608949)"><g
         id="g2">
	<g
   id="g1">
		<path
   d="m 344.343,276.922 c -47.235,3.774 -85.477,42.601 -104.739,66.454 -30.84,3.629 -60.757,12.146 -88.675,25.147 0.676,-1.713 1.362,-3.432 2.064,-5.16 25.504,-62.809 73.575,-148.383 158.893,-205.705 30.757,6.336 79.815,10.702 116.496,-13.408 57.548,-37.831 62.828,-131.428 62.828,-131.428 0,0 -88.019,-32.264 -145.562,5.564 -39.641,26.059 -54.484,78.574 -59.883,108.737 -38.692,26.63 -73.264,60.355 -102.92,100.488 -10.079,13.641 -19.598,28.03 -28.529,43.096 -1.693,-13.964 -4.408,-27.843 -8.136,-41.534 15.6,-27.273 34.83,-72.237 23.472,-114.392 C 151.734,48.286 64.491,13.975 64.491,13.975 c 0,0 -58.192,73.494 -40.275,139.988 12.388,45.977 57.91,76.564 84.828,91.068 9.964,40.037 9.898,81.774 -0.156,121.6 -25.299,68.285 -31.524,120.76 -31.796,123.135 -1.253,10.95 6.603,20.836 17.553,22.1 0.776,0.089 1.547,0.133 2.31,0.133 10.001,0 18.632,-7.502 19.815,-17.675 0.047,-0.402 3.4,-28.281 14.937,-68.934 34.407,-23.696 74.232,-38.363 115.925,-42.705 23.9,20.359 64.874,47.881 108.706,44.38 68.648,-5.482 118.3,-84.997 118.3,-84.997 0,0 -61.645,-70.628 -130.295,-65.146 z"
   id="path1" />
	</g>
</g></g><rect
       style="fill:#000000;stroke-width:0.210469;stroke-dasharray:none"
       id="rect1-6"
       width="4.9420824"
       height="28.016201"
       x="-37.537868"
       y="20.712282"
       ry="2.199291"
       transform="matrix(-0.87900359,-0.47681515,-0.49772695,0.86733378,0,0)" /><rect
       style="fill:#000000;stroke-width:0.210469;stroke-dasharray:none"
       id="rect1-58"
       width="5.048677"
       height="26.156862"
       x="-10.110266"
       y="-47.536381"
       ry="2.199291"
       transform="matrix(-0.87900359,0.47681515,-0.49772695,-0.86733378,0,0)" /><rect
       style="fill:#000000;stroke-width:0.210469;stroke-dasharray:none"
       id="rect1-08"
       width="5.2495914"
       height="29.144222"
       x="-46.357384"
       y="15.888045"
       ry="2.199291"
       transform="matrix(-0.87900359,-0.47681515,-0.49772695,0.86733378,0,0)" /><rect
       style="fill:#000000;stroke-width:0.210469;stroke-dasharray:none"
       id="rect1-60"
       width="5.0172377"
       height="24.541298"
       x="-1.7593694"
       y="-43.261581"
       ry="2.199291"
       transform="matrix(-0.87900359,0.47681515,-0.49772695,-0.86733378,0,0)" /></g></svg>
